<?xml version="1.0" encoding="UTF-8" standalone="no"?>
<!DOCTYPE svg PUBLIC "-//W3C//DTD SVG 1.1//EN"
 "http://www.w3.org/Graphics/SVG/1.1/DTD/svg11.dtd">
<!-- Generated by graphviz version 2.43.0 (0)
 -->
<!-- Title: main Pages: 1 -->
<svg width="1003pt" height="594pt"
 viewBox="0.00 0.00 1003.00 594.00" xmlns="http://www.w3.org/2000/svg" xmlns:xlink="http://www.w3.org/1999/xlink">
<g id="graph0" class="graph" transform="scale(1 1) rotate(0) translate(4 590)">
<title>main</title>
<!-- Node1 -->
<g id="Node000001" class="node">
<title>Node1</title>
<g id="a_Node000001"><a xlink:title=" ">
<polygon fill="#999999" stroke="#666666" points="41,-216.5 0,-216.5 0,-197.5 41,-197.5 41,-216.5"/>
<text text-anchor="middle" x="20.5" y="-204.5" font-family="Helvetica,sans-Serif" font-size="10.00">main</text>
</a>
</g>
</g>
<!-- Node2 -->
<g id="Node000002" class="node">
<title>Node2</title>
<g id="a_Node000002"><a xlink:href="../../d3/d0c/classFilteringDnsResolver_1_1Utilities_1_1ExceptionHandler.html#a163282756e48046f5efb99bffcd7ffde" target="_top" xlink:title="Handles the given exception by printing the error message and terminating the program with error code...">
<polygon fill="white" stroke="#666666" points="491,-438 320,-438 320,-408 491,-408 491,-438"/>
<text text-anchor="start" x="328" y="-426" font-family="Helvetica,sans-Serif" font-size="10.00">FilteringDnsResolver::Utilities</text>
<text text-anchor="middle" x="405.5" y="-415" font-family="Helvetica,sans-Serif" font-size="10.00">::ExceptionHandler::handleError</text>
</a>
</g>
</g>
<!-- Node1&#45;&gt;Node2 -->
<g id="edge1_Node000001_Node000002" class="edge">
<title>Node1&#45;&gt;Node2</title>
<g id="a_edge1_Node000001_Node000002"><a xlink:title=" ">
<path fill="none" stroke="#63b8ff" d="M38.45,-216.56C96.65,-249.38 289.12,-357.93 369.13,-403.06"/>
<polygon fill="#63b8ff" stroke="#63b8ff" points="367.44,-406.12 377.87,-407.98 370.88,-400.02 367.44,-406.12"/>
</a>
</g>
</g>
<!-- Node10 -->
<g id="Node000010" class="node">
<title>Node10</title>
<g id="a_Node000010"><a xlink:href="../../d3/d23/classFilteringDnsResolver_1_1Utilities_1_1SignalHandler.html#a6bcdf6ccfc6ea8a9d685b6ea2fd861ba" target="_top" xlink:title="Registers the necessary signal handlers for the application.">
<polygon fill="white" stroke="#666666" points="255,-102 77,-102 77,-72 255,-72 255,-102"/>
<text text-anchor="start" x="85" y="-90" font-family="Helvetica,sans-Serif" font-size="10.00">FilteringDnsResolver::Utilities</text>
<text text-anchor="middle" x="166" y="-79" font-family="Helvetica,sans-Serif" font-size="10.00">::SignalHandler::registerHandlers</text>
</a>
</g>
</g>
<!-- Node1&#45;&gt;Node10 -->
<g id="edge11_Node000001_Node000010" class="edge">
<title>Node1&#45;&gt;Node10</title>
<g id="a_edge11_Node000001_Node000010"><a xlink:title=" ">
<path fill="none" stroke="#63b8ff" d="M33.24,-197.18C56.22,-177.96 107.63,-134.98 139,-108.74"/>
<polygon fill="#63b8ff" stroke="#63b8ff" points="141.47,-111.24 146.9,-102.14 136.98,-105.87 141.47,-111.24"/>
</a>
</g>
</g>
<!-- Node12 -->
<g id="Node000012" class="node">
<title>Node12</title>
<g id="a_Node000012"><a xlink:href="../../db/d57/classFilteringDnsResolver_1_1Facades_1_1MainAppFacade.html#ab708c0d64c6edd1b97dd839bac2b9935" target="_top" xlink:title="Main entry point for running the DNS resolver application.">
<polygon fill="white" stroke="#666666" points="248,-222 84,-222 84,-192 248,-192 248,-222"/>
<text text-anchor="start" x="92" y="-210" font-family="Helvetica,sans-Serif" font-size="10.00">FilteringDnsResolver::Facades</text>
<text text-anchor="middle" x="166" y="-199" font-family="Helvetica,sans-Serif" font-size="10.00">::MainAppFacade::runResolver</text>
</a>
</g>
</g>
<!-- Node1&#45;&gt;Node12 -->
<g id="edge13_Node000001_Node000012" class="edge">
<title>Node1&#45;&gt;Node12</title>
<g id="a_edge13_Node000001_Node000012"><a xlink:title=" ">
<path fill="none" stroke="#63b8ff" d="M41.15,-207C50.09,-207 61.36,-207 73.45,-207"/>
<polygon fill="#63b8ff" stroke="#63b8ff" points="73.76,-210.5 83.76,-207 73.76,-203.5 73.76,-210.5"/>
</a>
</g>
</g>
<!-- Node3 -->
<g id="Node000003" class="node">
<title>Node3</title>
<g id="a_Node000003"><a xlink:href="../../d0/d7a/classFilteringDnsResolver_1_1Utilities_1_1CastUtils.html#a3cbd8644bdb18d79dad86e73d7ad5334" target="_top" xlink:title="Converts an enum value to its underlying integer representation.">
<polygon fill="white" stroke="#666666" points="750,-586 588,-586 588,-556 750,-556 750,-586"/>
<text text-anchor="start" x="596" y="-574" font-family="Helvetica,sans-Serif" font-size="10.00">FilteringDnsResolver::Utilities</text>
<text text-anchor="middle" x="669" y="-563" font-family="Helvetica,sans-Serif" font-size="10.00">::CastUtils::castEnumToInt</text>
</a>
</g>
</g>
<!-- Node2&#45;&gt;Node3 -->
<g id="edge2_Node000002_Node000003" class="edge">
<title>Node2&#45;&gt;Node3</title>
<g id="a_edge2_Node000002_Node000003"><a xlink:title=" ">
<path fill="none" stroke="#63b8ff" d="M421.13,-438.24C446.31,-463.57 500.49,-514.3 556,-542 564.34,-546.16 573.33,-549.76 582.47,-552.88"/>
<polygon fill="#63b8ff" stroke="#63b8ff" points="581.43,-556.22 592.02,-555.95 583.57,-549.56 581.43,-556.22"/>
</a>
</g>
</g>
<!-- Node4 -->
<g id="Node000004" class="node">
<title>Node4</title>
<g id="a_Node000004"><a xlink:href="../../db/d3f/classFilteringDnsResolver_1_1Exceptions_1_1BaseCustomException.html#aa39a16d925c57d6a6b6752a72ff0671f" target="_top" xlink:title="Returns the error code as integer for numeric comparison.">
<polygon fill="white" stroke="#666666" points="995,-534 818,-534 818,-504 995,-504 995,-534"/>
<text text-anchor="start" x="826" y="-522" font-family="Helvetica,sans-Serif" font-size="10.00">FilteringDnsResolver::Exceptions</text>
<text text-anchor="middle" x="906.5" y="-511" font-family="Helvetica,sans-Serif" font-size="10.00">::BaseCustomException::code</text>
</a>
</g>
</g>
<!-- Node2&#45;&gt;Node4 -->
<g id="edge3_Node000002_Node000004" class="edge">
<title>Node2&#45;&gt;Node4</title>
<g id="a_edge3_Node000002_Node000004"><a xlink:title=" ">
<path fill="none" stroke="#63b8ff" d="M433.35,-438.12C462.54,-453.76 511.06,-477.49 556,-489 639.22,-510.31 736.85,-517.24 807.73,-519.18"/>
<polygon fill="#63b8ff" stroke="#63b8ff" points="807.91,-522.68 817.99,-519.43 808.08,-515.68 807.91,-522.68"/>
</a>
</g>
</g>
<!-- Node5 -->
<g id="Node000005" class="node">
<title>Node5</title>
<g id="a_Node000005"><a xlink:href="../../d3/d0c/classFilteringDnsResolver_1_1Utilities_1_1ExceptionHandler.html#a2a4aad63a98de6d0288d480ededee66c" target="_top" xlink:title="Retrieves the BaseCustomException from an exception.">
<polygon fill="white" stroke="#666666" points="777,-414 561,-414 561,-384 777,-384 777,-414"/>
<text text-anchor="start" x="569" y="-402" font-family="Helvetica,sans-Serif" font-size="10.00">FilteringDnsResolver::Utilities</text>
<text text-anchor="middle" x="669" y="-391" font-family="Helvetica,sans-Serif" font-size="10.00">::ExceptionHandler::getCustomException</text>
</a>
</g>
</g>
<!-- Node2&#45;&gt;Node5 -->
<g id="edge4_Node000002_Node000005" class="edge">
<title>Node2&#45;&gt;Node5</title>
<g id="a_edge4_Node000002_Node000005"><a xlink:title=" ">
<path fill="none" stroke="#63b8ff" d="M491.04,-415.24C510.06,-413.5 530.58,-411.61 550.67,-409.77"/>
<polygon fill="#63b8ff" stroke="#63b8ff" points="551.17,-413.24 560.81,-408.84 550.53,-406.27 551.17,-413.24"/>
</a>
</g>
</g>
<!-- Node6 -->
<g id="Node000006" class="node">
<title>Node6</title>
<g id="a_Node000006"><a xlink:href="../../d3/d0c/classFilteringDnsResolver_1_1Utilities_1_1ExceptionHandler.html#ae8c2cbda2b0b7770d437cab7bc5aaf74" target="_top" xlink:title="Prints the given error message.">
<polygon fill="white" stroke="#666666" points="750,-462 588,-462 588,-432 750,-432 750,-462"/>
<text text-anchor="start" x="596" y="-450" font-family="Helvetica,sans-Serif" font-size="10.00">FilteringDnsResolver::Utilities</text>
<text text-anchor="middle" x="669" y="-439" font-family="Helvetica,sans-Serif" font-size="10.00">::ExceptionHandler::printError</text>
</a>
</g>
</g>
<!-- Node2&#45;&gt;Node6 -->
<g id="edge5_Node000002_Node000006" class="edge">
<title>Node2&#45;&gt;Node6</title>
<g id="a_edge5_Node000002_Node000006"><a xlink:title=" ">
<path fill="none" stroke="#63b8ff" d="M491.04,-430.76C518.68,-433.3 549.49,-436.12 577.55,-438.7"/>
<polygon fill="#63b8ff" stroke="#63b8ff" points="577.48,-442.21 587.75,-439.64 578.11,-435.24 577.48,-442.21"/>
</a>
</g>
</g>
<!-- Node8 -->
<g id="Node000008" class="node">
<title>Node8</title>
<g id="a_Node000008"><a xlink:href="../../db/d3f/classFilteringDnsResolver_1_1Exceptions_1_1BaseCustomException.html#a852adf0fa37678e109582c649dc61ff5" target="_top" xlink:title="Returns the primary error message for standard exception handling.">
<polygon fill="white" stroke="#666666" points="995,-478 818,-478 818,-448 995,-448 995,-478"/>
<text text-anchor="start" x="826" y="-466" font-family="Helvetica,sans-Serif" font-size="10.00">FilteringDnsResolver::Exceptions</text>
<text text-anchor="middle" x="906.5" y="-455" font-family="Helvetica,sans-Serif" font-size="10.00">::BaseCustomException::what</text>
</a>
</g>
</g>
<!-- Node2&#45;&gt;Node8 -->
<g id="edge10_Node000002_Node000008" class="edge">
<title>Node2&#45;&gt;Node8</title>
<g id="a_edge10_Node000002_Node000008"><a xlink:title=" ">
<path fill="none" stroke="#63b8ff" d="M442.59,-438.09C472.4,-449.69 516.14,-464.76 556,-471 640.16,-484.18 737.08,-480.5 807.48,-474.49"/>
<polygon fill="#63b8ff" stroke="#63b8ff" points="808.02,-477.96 817.67,-473.59 807.4,-470.99 808.02,-477.96"/>
</a>
</g>
</g>
<!-- Node9 -->
<g id="Node000009" class="node">
<title>Node9</title>
<g id="a_Node000009"><a xlink:href="../../d3/d0c/classFilteringDnsResolver_1_1Utilities_1_1ExceptionHandler.html#adbe797d57050b25780d4e767bebbc283" target="_top" xlink:title="Terminates the program with the given error code.">
<polygon fill="white" stroke="#666666" points="771,-366 567,-366 567,-336 771,-336 771,-366"/>
<text text-anchor="start" x="575" y="-354" font-family="Helvetica,sans-Serif" font-size="10.00">FilteringDnsResolver::Utilities</text>
<text text-anchor="middle" x="669" y="-343" font-family="Helvetica,sans-Serif" font-size="10.00">::ExceptionHandler::terminateProgram</text>
</a>
</g>
</g>
<!-- Node2&#45;&gt;Node9 -->
<g id="edge9_Node000002_Node000009" class="edge">
<title>Node2&#45;&gt;Node9</title>
<g id="a_edge9_Node000002_Node000009"><a xlink:title=" ">
<path fill="none" stroke="#63b8ff" d="M449.34,-407.99C479.05,-397.89 519.65,-384.7 556,-375 564.68,-372.68 573.78,-370.44 582.88,-368.31"/>
<polygon fill="#63b8ff" stroke="#63b8ff" points="583.78,-371.69 592.75,-366.05 582.22,-364.87 583.78,-371.69"/>
</a>
</g>
</g>
<!-- Node6&#45;&gt;Node4 -->
<g id="edge6_Node000006_Node000004" class="edge">
<title>Node6&#45;&gt;Node4</title>
<g id="a_edge6_Node000006_Node000004"><a xlink:title=" ">
<path fill="none" stroke="#63b8ff" d="M719.08,-462.01C756.11,-473.33 807.08,-488.91 846.36,-500.92"/>
<polygon fill="#63b8ff" stroke="#63b8ff" points="845.49,-504.31 856.08,-503.89 847.54,-497.62 845.49,-504.31"/>
</a>
</g>
</g>
<!-- Node7 -->
<g id="Node000007" class="node">
<title>Node7</title>
<g id="a_Node000007"><a xlink:href="../../db/d3f/classFilteringDnsResolver_1_1Exceptions_1_1BaseCustomException.html#a3fcf30f1346a86c4e61a7ea5a43c5b79" target="_top" xlink:title="Returns additional error context and debugging information.">
<polygon fill="white" stroke="#666666" points="995,-366 818,-366 818,-336 995,-336 995,-366"/>
<text text-anchor="start" x="826" y="-354" font-family="Helvetica,sans-Serif" font-size="10.00">FilteringDnsResolver::Exceptions</text>
<text text-anchor="middle" x="906.5" y="-343" font-family="Helvetica,sans-Serif" font-size="10.00">::BaseCustomException::detail</text>
</a>
</g>
</g>
<!-- Node6&#45;&gt;Node7 -->
<g id="edge7_Node000006_Node000007" class="edge">
<title>Node6&#45;&gt;Node7</title>
<g id="a_edge7_Node000006_Node000007"><a xlink:title=" ">
<path fill="none" stroke="#63b8ff" d="M750.15,-433.07C761.01,-430.25 771.89,-426.91 782,-423 816.01,-409.83 851.67,-388.05 875.88,-371.89"/>
<polygon fill="#63b8ff" stroke="#63b8ff" points="877.94,-374.73 884.25,-366.22 874.01,-368.93 877.94,-374.73"/>
</a>
</g>
</g>
<!-- Node6&#45;&gt;Node8 -->
<g id="edge8_Node000006_Node000008" class="edge">
<title>Node6&#45;&gt;Node8</title>
<g id="a_edge8_Node000006_Node000008"><a xlink:title=" ">
<path fill="none" stroke="#63b8ff" d="M750.06,-452.44C768.68,-453.7 788.71,-455.07 807.99,-456.38"/>
<polygon fill="#63b8ff" stroke="#63b8ff" points="807.78,-459.87 817.99,-457.05 808.25,-452.88 807.78,-459.87"/>
</a>
</g>
</g>
<!-- Node11 -->
<g id="Node000011" class="node">
<title>Node11</title>
<g id="a_Node000011"><a xlink:href="../../d3/d23/classFilteringDnsResolver_1_1Utilities_1_1SignalHandler.html#ac0053f052d154f11f6e42a0c87b0346b" target="_top" xlink:title="Signal handling function.">
<polygon fill="white" stroke="#666666" points="486.5,-30 324.5,-30 324.5,0 486.5,0 486.5,-30"/>
<text text-anchor="start" x="332.5" y="-18" font-family="Helvetica,sans-Serif" font-size="10.00">FilteringDnsResolver::Utilities</text>
<text text-anchor="middle" x="405.5" y="-7" font-family="Helvetica,sans-Serif" font-size="10.00">::SignalHandler::handleSignal</text>
</a>
</g>
</g>
<!-- Node10&#45;&gt;Node11 -->
<g id="edge12_Node000010_Node000011" class="edge">
<title>Node10&#45;&gt;Node11</title>
<g id="a_edge12_Node000010_Node000011"><a xlink:title=" ">
<path fill="none" stroke="#63b8ff" d="M201.49,-71.92C226.08,-61.6 260.13,-48.17 291,-39 298.91,-36.65 307.19,-34.44 315.53,-32.38"/>
<polygon fill="#63b8ff" stroke="#63b8ff" points="316.41,-35.77 325.32,-30.03 314.78,-28.96 316.41,-35.77"/>
</a>
</g>
</g>
<!-- Node12&#45;&gt;Node2 -->
<g id="edge21_Node000012_Node000002" class="edge">
<title>Node12&#45;&gt;Node2</title>
<g id="a_edge21_Node000012_Node000002"><a xlink:title=" ">
<path fill="none" stroke="#63b8ff" d="M181.96,-222.11C204.95,-245.2 250.57,-290.42 291,-327 320.1,-353.33 354.68,-382.26 377.96,-401.4"/>
<polygon fill="#63b8ff" stroke="#63b8ff" points="375.74,-404.11 385.69,-407.74 380.18,-398.7 375.74,-404.11"/>
</a>
</g>
</g>
<!-- Node13 -->
<g id="Node000013" class="node">
<title>Node13</title>
<g id="a_Node000013"><a xlink:href="../../db/d57/classFilteringDnsResolver_1_1Facades_1_1MainAppFacade.html#a99eb28094c236ae86b7ff4d59d421e2e" target="_top" xlink:title="Initializes domain filtering system from configuration file.">
<polygon fill="white" stroke="#666666" points="501.5,-318 309.5,-318 309.5,-288 501.5,-288 501.5,-318"/>
<text text-anchor="start" x="317.5" y="-306" font-family="Helvetica,sans-Serif" font-size="10.00">FilteringDnsResolver::Facades</text>
<text text-anchor="middle" x="405.5" y="-295" font-family="Helvetica,sans-Serif" font-size="10.00">::MainAppFacade::buildDomainFilter</text>
</a>
</g>
</g>
<!-- Node12&#45;&gt;Node13 -->
<g id="edge14_Node000012_Node000013" class="edge">
<title>Node12&#45;&gt;Node13</title>
<g id="a_edge14_Node000012_Node000013"><a xlink:title=" ">
<path fill="none" stroke="#63b8ff" d="M188.33,-222.24C212.23,-238.61 252.66,-264.25 291,-279 296.8,-281.23 302.85,-283.27 309,-285.14"/>
<polygon fill="#63b8ff" stroke="#63b8ff" points="308.16,-288.54 318.74,-287.93 310.09,-281.81 308.16,-288.54"/>
</a>
</g>
</g>
<!-- Node26 -->
<g id="Node000026" class="node">
<title>Node26</title>
<g id="a_Node000026"><a xlink:href="../../db/d57/classFilteringDnsResolver_1_1Facades_1_1MainAppFacade.html#a0bc839357112b0041f399d2d83f5fe27" target="_top" xlink:title="Parses and validates command line arguments.">
<polygon fill="white" stroke="#666666" points="520,-270 291,-270 291,-240 520,-240 520,-270"/>
<text text-anchor="start" x="299" y="-258" font-family="Helvetica,sans-Serif" font-size="10.00">FilteringDnsResolver::Facades</text>
<text text-anchor="middle" x="405.5" y="-247" font-family="Helvetica,sans-Serif" font-size="10.00">::MainAppFacade::getCommandLineOptions</text>
</a>
</g>
</g>
<!-- Node12&#45;&gt;Node26 -->
<g id="edge17_Node000012_Node000026" class="edge">
<title>Node12&#45;&gt;Node26</title>
<g id="a_edge17_Node000012_Node000026"><a xlink:title=" ">
<path fill="none" stroke="#63b8ff" d="M241.49,-222.06C266.47,-227.1 294.5,-232.77 320.18,-237.96"/>
<polygon fill="#63b8ff" stroke="#63b8ff" points="319.77,-241.45 330.27,-240 321.16,-234.59 319.77,-241.45"/>
</a>
</g>
</g>
<!-- Node29 -->
<g id="Node000029" class="node">
<title>Node29</title>
<g id="a_Node000029"><a xlink:href="../../db/d57/classFilteringDnsResolver_1_1Facades_1_1MainAppFacade.html#ac7f0f3a3d2c9376785340a6a181c4101" target="_top" xlink:title="Resolves upstream DNS server hostname to network address.">
<polygon fill="white" stroke="#666666" points="507,-222 304,-222 304,-192 507,-192 507,-222"/>
<text text-anchor="start" x="312" y="-210" font-family="Helvetica,sans-Serif" font-size="10.00">FilteringDnsResolver::Facades</text>
<text text-anchor="middle" x="405.5" y="-199" font-family="Helvetica,sans-Serif" font-size="10.00">::MainAppFacade::getResolverAddress</text>
</a>
</g>
</g>
<!-- Node12&#45;&gt;Node29 -->
<g id="edge19_Node000012_Node000029" class="edge">
<title>Node12&#45;&gt;Node29</title>
<g id="a_edge19_Node000012_Node000029"><a xlink:title=" ">
<path fill="none" stroke="#63b8ff" d="M248.07,-207C262.73,-207 278.25,-207 293.59,-207"/>
<polygon fill="#63b8ff" stroke="#63b8ff" points="293.63,-210.5 303.63,-207 293.63,-203.5 293.63,-210.5"/>
</a>
</g>
</g>
<!-- Node32 -->
<g id="Node000032" class="node">
<title>Node32</title>
<g id="a_Node000032"><a xlink:href="../../db/d57/classFilteringDnsResolver_1_1Facades_1_1MainAppFacade.html#a2179de2f5e3bac6164d6e96e9199b3f8" target="_top" xlink:title="Starts the main DNS resolver processing loop.">
<polygon fill="white" stroke="#666666" points="487,-174 324,-174 324,-144 487,-144 487,-174"/>
<text text-anchor="start" x="332" y="-162" font-family="Helvetica,sans-Serif" font-size="10.00">FilteringDnsResolver::Facades</text>
<text text-anchor="middle" x="405.5" y="-151" font-family="Helvetica,sans-Serif" font-size="10.00">::MainAppFacade::runUdpFsm</text>
</a>
</g>
</g>
<!-- Node12&#45;&gt;Node32 -->
<g id="edge22_Node000012_Node000032" class="edge">
<title>Node12&#45;&gt;Node32</title>
<g id="a_edge22_Node000012_Node000032"><a xlink:title=" ">
<path fill="none" stroke="#63b8ff" d="M241.49,-191.94C266.47,-186.9 294.5,-181.23 320.18,-176.04"/>
<polygon fill="#63b8ff" stroke="#63b8ff" points="321.16,-179.41 330.27,-174 319.77,-172.55 321.16,-179.41"/>
</a>
</g>
</g>
<!-- Node33 -->
<g id="Node000033" class="node">
<title>Node33</title>
<g id="a_Node000033"><a xlink:href="../../db/d57/classFilteringDnsResolver_1_1Facades_1_1MainAppFacade.html#a22cd2d9e16085f2026f44cb53c0956ec" target="_top" xlink:title="Initializes the UDP finite state machine.">
<polygon fill="white" stroke="#666666" points="492,-126 319,-126 319,-96 492,-96 492,-126"/>
<text text-anchor="start" x="327" y="-114" font-family="Helvetica,sans-Serif" font-size="10.00">FilteringDnsResolver::Facades</text>
<text text-anchor="middle" x="405.5" y="-103" font-family="Helvetica,sans-Serif" font-size="10.00">::MainAppFacade::setupUdpFsm</text>
</a>
</g>
</g>
<!-- Node12&#45;&gt;Node33 -->
<g id="edge23_Node000012_Node000033" class="edge">
<title>Node12&#45;&gt;Node33</title>
<g id="a_edge23_Node000012_Node000033"><a xlink:title=" ">
<path fill="none" stroke="#63b8ff" d="M188.33,-191.76C212.23,-175.39 252.66,-149.75 291,-135 296.8,-132.77 302.85,-130.73 309,-128.86"/>
<polygon fill="#63b8ff" stroke="#63b8ff" points="310.09,-132.19 318.74,-126.07 308.16,-125.46 310.09,-132.19"/>
</a>
</g>
</g>
<!-- Node34 -->
<g id="Node000034" class="node">
<title>Node34</title>
<g id="a_Node000034"><a xlink:href="../../db/d57/classFilteringDnsResolver_1_1Facades_1_1MainAppFacade.html#a426d8b6c3b1e2dbc152bd865dc1e1040" target="_top" xlink:title="Sets up UDP sockets for DNS communication.">
<polygon fill="white" stroke="#666666" points="500,-78 311,-78 311,-48 500,-48 500,-78"/>
<text text-anchor="start" x="319" y="-66" font-family="Helvetica,sans-Serif" font-size="10.00">FilteringDnsResolver::Facades</text>
<text text-anchor="middle" x="405.5" y="-55" font-family="Helvetica,sans-Serif" font-size="10.00">::MainAppFacade::setupUdpSockets</text>
</a>
</g>
</g>
<!-- Node12&#45;&gt;Node34 -->
<g id="edge24_Node000012_Node000034" class="edge">
<title>Node12&#45;&gt;Node34</title>
<g id="a_edge24_Node000012_Node000034"><a xlink:title=" ">
<path fill="none" stroke="#63b8ff" d="M178.07,-191.69C197.71,-165.76 241.27,-113.44 291,-87 294.55,-85.11 298.24,-83.37 302.02,-81.77"/>
<polygon fill="#63b8ff" stroke="#63b8ff" points="303.52,-84.94 311.58,-78.06 300.99,-78.42 303.52,-84.94"/>
</a>
</g>
</g>
<!-- Node14 -->
<g id="Node000014" class="node">
<title>Node14</title>
<g id="a_Node000014"><a xlink:href="../../d8/dec/classFilteringDnsResolver_1_1Filter_1_1FilterFileLoader.html#a4315c0c987dc870ec1d095cf7647c205" target="_top" xlink:title="Loads and processes domain filter from configuration file.">
<polygon fill="#fff0f0" stroke="red" points="743.5,-318 594.5,-318 594.5,-288 743.5,-288 743.5,-318"/>
<text text-anchor="start" x="602.5" y="-306" font-family="Helvetica,sans-Serif" font-size="10.00">FilteringDnsResolver::Filter</text>
<text text-anchor="middle" x="669" y="-295" font-family="Helvetica,sans-Serif" font-size="10.00">::FilterFileLoader::loadFilter</text>
</a>
</g>
</g>
<!-- Node13&#45;&gt;Node14 -->
<g id="edge15_Node000013_Node000014" class="edge">
<title>Node13&#45;&gt;Node14</title>
<g id="a_edge15_Node000013_Node000014"><a xlink:title=" ">
<path fill="none" stroke="#63b8ff" d="M501.65,-303C528.59,-303 557.72,-303 583.96,-303"/>
<polygon fill="#63b8ff" stroke="#63b8ff" points="584.24,-306.5 594.24,-303 584.24,-299.5 584.24,-306.5"/>
</a>
</g>
</g>
<!-- Node14&#45;&gt;Node7 -->
<g id="edge16_Node000014_Node000007" class="edge">
<title>Node14&#45;&gt;Node7</title>
<g id="a_edge16_Node000014_Node000007"><a xlink:title=" ">
<path fill="none" stroke="#63b8ff" d="M743.54,-317.99C768.33,-323.04 796.16,-328.71 821.68,-333.92"/>
<polygon fill="#63b8ff" stroke="#63b8ff" points="821.21,-337.39 831.7,-335.96 822.6,-330.53 821.21,-337.39"/>
</a>
</g>
</g>
<!-- Node27 -->
<g id="Node000027" class="node">
<title>Node27</title>
<g id="a_Node000027"><a xlink:href="../../de/da3/classFilteringDnsResolver_1_1Arguments_1_1ArgumentParser.html#a5ade5197d15a2f0bebd3f0522aec3bae" target="_top" xlink:title="Parses command line arguments and returns a populated CommandLineOptions object.">
<polygon fill="#fff0f0" stroke="red" points="762.5,-270 575.5,-270 575.5,-240 762.5,-240 762.5,-270"/>
<text text-anchor="start" x="583.5" y="-258" font-family="Helvetica,sans-Serif" font-size="10.00">FilteringDnsResolver::Arguments</text>
<text text-anchor="middle" x="669" y="-247" font-family="Helvetica,sans-Serif" font-size="10.00">::ArgumentParser::parseArguments</text>
</a>
</g>
</g>
<!-- Node26&#45;&gt;Node27 -->
<g id="edge18_Node000026_Node000027" class="edge">
<title>Node26&#45;&gt;Node27</title>
<g id="a_edge18_Node000026_Node000027"><a xlink:title=" ">
<path fill="none" stroke="#63b8ff" d="M520.06,-255C535.06,-255 550.38,-255 565.19,-255"/>
<polygon fill="#63b8ff" stroke="#63b8ff" points="565.35,-258.5 575.35,-255 565.35,-251.5 565.35,-258.5"/>
</a>
</g>
</g>
<!-- Node30 -->
<g id="Node000030" class="node">
<title>Node30</title>
<g id="a_Node000030"><a xlink:href="../../dd/d87/classFilteringDnsResolver_1_1HostnameResolution_1_1ResolverSetup.html#a2312655d70040f88b7555916ebe5c9c1" target="_top" xlink:title="Sets up a DNS resolver configuration from a hostname.">
<polygon fill="#fff0f0" stroke="red" points="782,-222 556,-222 556,-192 782,-192 782,-222"/>
<text text-anchor="start" x="564" y="-210" font-family="Helvetica,sans-Serif" font-size="10.00">FilteringDnsResolver::HostnameResolution</text>
<text text-anchor="middle" x="669" y="-199" font-family="Helvetica,sans-Serif" font-size="10.00">::ResolverSetup::setupResolver</text>
</a>
</g>
</g>
<!-- Node29&#45;&gt;Node30 -->
<g id="edge20_Node000029_Node000030" class="edge">
<title>Node29&#45;&gt;Node30</title>
<g id="a_edge20_Node000029_Node000030"><a xlink:title=" ">
<path fill="none" stroke="#63b8ff" d="M507.23,-207C519.72,-207 532.59,-207 545.36,-207"/>
<polygon fill="#63b8ff" stroke="#63b8ff" points="545.57,-210.5 555.57,-207 545.57,-203.5 545.57,-210.5"/>
</a>
</g>
</g>
<!-- Node35 -->
<g id="Node000035" class="node">
<title>Node35</title>
<g id="a_Node000035"><a xlink:href="../../dd/d88/classFilteringDnsResolver_1_1Networking_1_1UdpSockets.html#a8c29e6d693f1b98cd9ca68ac034c2c39" target="_top" xlink:title="Creates and configures UDP socket pair for DNS operations.">
<polygon fill="#fff0f0" stroke="red" points="759,-78 579,-78 579,-48 759,-48 759,-78"/>
<text text-anchor="start" x="587" y="-66" font-family="Helvetica,sans-Serif" font-size="10.00">FilteringDnsResolver::Networking</text>
<text text-anchor="middle" x="669" y="-55" font-family="Helvetica,sans-Serif" font-size="10.00">::UdpSockets::openUdpSockets</text>
</a>
</g>
</g>
<!-- Node34&#45;&gt;Node35 -->
<g id="edge25_Node000034_Node000035" class="edge">
<title>Node34&#45;&gt;Node35</title>
<g id="a_edge25_Node000034_Node000035"><a xlink:title=" ">
<path fill="none" stroke="#63b8ff" d="M500.17,-63C522.41,-63 546.21,-63 568.69,-63"/>
<polygon fill="#63b8ff" stroke="#63b8ff" points="568.92,-66.5 578.92,-63 568.92,-59.5 568.92,-66.5"/>
</a>
</g>
</g>
</g>
</svg>
